<svg width="1092" height="381" viewBox="0 0 1092 381" fill="none" xmlns="http://www.w3.org/2000/svg">
<circle cx="185" cy="185" r="177.5" fill="#F5F5F5" stroke="#027333" stroke-width="15"/>
<path d="M89.2588 121.063C89.2691 120.295 89.344 119.48 89.4835 118.618C89.6555 117.724 89.8921 116.783 90.1934 115.795C90.527 114.775 90.9253 113.709 91.3883 112.595L94.826 113.985C94.494 114.876 94.1947 115.72 93.928 116.517C93.6934 117.314 93.5073 118.063 93.3699 118.766C93.2645 119.468 93.2075 120.14 93.199 120.78C93.1771 122.411 93.5907 123.793 94.4396 124.925C95.2886 126.056 96.3973 126.903 97.7659 127.465C99.1661 128.06 100.666 128.368 102.266 128.39C105.402 128.431 107.857 127.904 109.632 126.808C111.406 125.744 112.658 124.304 113.386 122.49C114.114 120.707 114.444 118.744 114.377 116.599L113.716 87.067L117.699 87.1203L118.142 111.464C118.184 113.097 118.423 114.38 118.858 115.314C119.326 116.217 119.958 116.849 120.753 117.212C121.548 117.575 122.426 117.762 123.386 117.775C124.058 117.784 124.535 117.983 124.818 118.37C125.133 118.727 125.287 119.161 125.281 119.673C125.274 120.185 125.043 120.662 124.589 121.104C124.136 121.513 123.557 121.714 122.853 121.704C121.861 121.691 121.015 121.552 120.315 121.286C119.615 120.989 119.043 120.629 118.601 120.207C118.159 119.753 117.814 119.253 117.565 118.705C117.317 118.126 117.132 117.547 117.012 116.97L118.338 118.332C118.187 120.026 117.797 121.701 117.167 123.356C116.568 125.045 115.652 126.568 114.417 127.928C113.183 129.288 111.536 130.37 109.477 131.174C107.45 131.979 104.949 132.362 101.973 132.322C100.309 132.3 98.697 132.022 97.136 131.489C95.6066 130.989 94.2403 130.25 93.0373 129.274C91.8662 128.298 90.938 127.118 90.2524 125.733C89.5665 124.379 89.2353 122.823 89.2588 121.063ZM122.876 121.705L123.408 117.775C124.304 117.787 125.059 117.605 125.672 117.23C126.285 116.854 126.885 116.222 127.473 115.334C128.061 114.445 128.701 113.254 129.393 111.759C130.349 109.724 131.281 108.184 132.191 107.14C133.133 106.096 134.055 105.389 134.956 105.017C135.889 104.645 136.804 104.465 137.7 104.477C138.787 104.492 139.791 104.793 140.712 105.382C141.632 105.938 142.438 106.685 143.13 107.622C143.821 108.56 144.352 109.591 144.721 110.716C145.122 111.809 145.316 112.9 145.301 113.988C145.275 115.908 144.919 117.439 144.231 118.582C143.544 119.693 142.67 120.497 141.607 120.995C140.577 121.461 139.501 121.687 138.382 121.672C137.39 121.659 136.112 121.45 134.55 121.045C133.019 120.64 131.08 119.638 128.733 118.039L130.646 115.04C132.2 116.053 133.599 116.76 134.842 117.16C136.117 117.529 137.17 117.72 138.002 117.731C138.93 117.743 139.668 117.625 140.215 117.376C140.763 117.096 141.168 116.701 141.431 116.192C141.694 115.684 141.83 115.11 141.838 114.47C141.851 113.542 141.639 112.611 141.204 111.677C140.768 110.743 140.202 109.967 139.507 109.35C138.843 108.733 138.127 108.419 137.359 108.409C136.783 108.402 136.221 108.554 135.673 108.867C135.124 109.179 134.557 109.764 133.969 110.62C133.382 111.476 132.709 112.715 131.951 114.337C131.16 116.055 130.406 117.421 129.688 118.436C129.003 119.418 128.305 120.145 127.595 120.616C126.884 121.086 126.144 121.38 125.375 121.498C124.637 121.648 123.804 121.717 122.876 121.705ZM167.302 96.3287C167.311 95.6248 167.275 94.7762 167.192 93.783C167.109 92.7898 167.011 91.7964 166.896 90.8028C166.781 89.8092 166.664 88.9595 166.546 88.2539L170.68 87.8291C170.767 88.4704 170.852 89.3196 170.934 90.3768C171.048 91.4024 171.13 92.4276 171.181 93.4524C171.231 94.4771 171.252 95.3255 171.243 95.9974C171.222 97.5333 171.09 99.0356 170.846 100.505C170.635 101.942 170.296 103.361 169.829 104.763C169.363 106.133 168.753 107.469 168 108.771L167.409 109.819C166.493 111.311 165.37 112.752 164.039 114.143C162.709 115.501 161.156 116.792 159.379 118.017L165.427 118.098C166.514 118.112 167.348 117.995 167.927 117.747C168.507 117.467 168.896 117.104 169.094 116.659C169.324 116.214 169.443 115.735 169.449 115.223C169.461 114.359 168.947 113.28 167.909 111.986C166.902 110.661 165.498 109.202 163.695 107.609C161.892 105.985 159.851 104.278 157.571 102.487C155.29 100.696 152.883 98.872 150.347 97.014L152.645 93.8764C155.56 96.0916 158.125 98.0941 160.342 99.8839C162.59 101.674 164.504 103.316 166.084 104.809C167.697 106.271 169.007 107.633 170.014 108.894C171.054 110.124 171.806 111.302 172.271 112.429C172.768 113.523 173.01 114.599 172.996 115.655C172.986 116.359 172.849 117.093 172.582 117.857C172.349 118.59 171.923 119.289 171.306 119.952C170.722 120.585 169.883 121.101 168.789 121.503C167.728 121.873 166.35 122.046 164.654 122.024L153.615 121.876L153.667 117.988C156.994 115.665 159.633 113.396 161.583 111.182C163.565 108.968 165.004 106.651 165.9 104.231C166.797 101.81 167.264 99.1765 167.302 96.3287ZM149.752 91.2935L149.21 88.694C150.045 88.5132 150.719 88.3622 151.233 88.241C151.746 88.1199 152.324 87.9836 152.966 87.8322L152.713 88.8369C151.884 88.5698 151.092 88.0151 150.335 87.1729C149.61 86.3311 149.255 85.3823 149.269 84.3264C149.282 83.3665 149.516 82.5696 149.973 81.9356C150.462 81.2701 151.076 80.7823 151.817 80.4721C152.589 80.1624 153.407 80.0134 154.271 80.0249C154.623 80.0296 154.99 80.0666 155.373 80.1357C155.789 80.2052 156.171 80.3064 156.522 80.4391L156.105 82.8337C155.786 82.7654 155.483 82.6974 155.196 82.6295C154.909 82.5617 154.589 82.5254 154.237 82.5207C153.502 82.5109 152.923 82.6631 152.503 82.9775C152.083 83.26 151.87 83.6731 151.863 84.2171C151.854 84.889 152.054 85.4678 152.463 85.9533C152.905 86.4392 153.396 86.8298 153.936 87.1251C154.508 87.3888 154.971 87.523 155.323 87.5277L153.352 87.6933C154.219 87.4809 155.022 87.2676 155.761 87.0535C156.532 86.8078 157.223 86.577 157.834 86.3612L158.57 88.8192C157.798 89.0969 156.882 89.3887 155.822 89.6945C154.793 90.0008 153.749 90.2909 152.69 90.5647C151.63 90.8386 150.651 91.0815 149.752 91.2935ZM180.446 122.235L179.945 87.9531L183.832 88.0051L184.334 122.287L180.446 122.235ZM205.508 133.707L204.165 130.041C206.511 129.304 208.459 128.45 210.008 127.479C211.589 126.508 212.835 125.468 213.746 124.361C214.689 123.253 215.36 122.126 215.76 120.979C216.159 119.8 216.366 118.667 216.381 117.579C216.402 116.011 216.071 114.423 215.389 112.813C214.739 111.173 214.007 109.627 213.195 108.176L216.722 106.447C217.315 107.575 217.828 108.686 218.262 109.78C218.727 110.874 219.129 111.903 219.468 112.868C219.839 113.833 220.132 114.717 220.345 115.52C220.774 116.902 221.338 117.854 222.035 118.375C222.764 118.865 223.753 119.118 225.001 119.135C225.673 119.144 226.15 119.342 226.433 119.73C226.748 120.086 226.903 120.52 226.896 121.032C226.889 121.544 226.659 122.021 226.205 122.463C225.751 122.873 225.172 123.073 224.468 123.064C223.061 123.045 221.912 122.79 221.022 122.298C220.165 121.774 219.518 121.109 219.081 120.304C218.644 119.466 218.352 118.598 218.204 117.7L219.728 118.584C219.7 120.696 219.194 122.609 218.211 124.324C217.26 126.072 216.039 127.576 214.55 128.836C213.061 130.128 211.511 131.179 209.9 131.99C208.289 132.8 206.825 133.373 205.508 133.707ZM224.492 123.064L225.024 119.135C226.048 119.149 226.881 119.096 227.523 118.976C228.165 118.825 228.698 118.464 229.121 117.894C229.577 117.292 230.006 116.353 230.407 115.079C230.808 113.804 231.28 112.018 231.823 109.721L235.409 110.777C235.206 111.575 234.969 112.531 234.699 113.648C234.428 114.764 234.286 115.787 234.273 116.714C234.267 117.226 234.389 117.676 234.639 118.063C234.89 118.451 235.318 118.761 235.923 118.993C236.561 119.193 237.407 119.301 238.463 119.315C239.423 119.328 240.208 119.258 240.818 119.106C241.428 118.954 241.929 118.577 242.321 117.974C242.745 117.372 243.126 116.401 243.464 115.061C243.802 113.722 244.163 111.886 244.546 109.555L248.185 110.276C248.081 110.851 247.96 111.553 247.821 112.383C247.681 113.214 247.542 114.044 247.403 114.874C247.297 115.673 247.24 116.344 247.232 116.888C247.226 117.336 247.317 117.769 247.503 118.188C247.722 118.575 248.134 118.884 248.739 119.116C249.376 119.349 250.318 119.473 251.566 119.49C253.166 119.511 254.322 119.191 255.035 118.528C255.78 117.866 256.162 116.847 256.18 115.471C256.19 114.736 256.184 113.967 256.163 113.167C256.142 112.335 256.09 111.422 256.008 110.429C255.957 109.404 255.861 108.235 255.718 106.92L259.225 106.727C259.383 109.322 259.562 111.452 259.764 113.119C259.998 114.786 260.332 116.103 260.767 117.069C261.235 118.003 261.866 118.668 262.661 119.062C263.455 119.457 264.509 119.663 265.821 119.681C266.493 119.69 266.97 119.888 267.253 120.276C267.568 120.632 267.722 121.066 267.715 121.578C267.709 122.09 267.478 122.567 267.024 123.009C266.571 123.419 265.992 123.619 265.288 123.61C264.2 123.595 263.226 123.438 262.366 123.139C261.538 122.808 260.808 122.382 260.175 121.861C259.574 121.309 259.07 120.695 258.663 120.017C258.289 119.308 258.027 118.568 257.877 117.798L258.737 118.098C258.366 119.533 257.791 120.645 257.012 121.435C256.266 122.193 255.379 122.725 254.351 123.032C253.323 123.306 252.233 123.435 251.081 123.42C249.673 123.401 248.524 123.21 247.633 122.846C246.741 122.482 246.045 121.944 245.542 121.234C245.072 120.491 244.764 119.559 244.619 118.437L246.251 118.459C245.625 119.827 244.971 120.858 244.29 121.553C243.608 122.248 242.77 122.717 241.775 122.959C240.78 123.17 239.466 123.265 237.834 123.243C237.035 123.232 236.172 123.092 235.248 122.824C234.355 122.556 233.578 122.05 232.916 121.305C232.254 120.528 231.869 119.387 231.762 117.881L233.205 117.612C232.64 119.237 231.951 120.444 231.141 121.233C230.363 121.991 229.428 122.49 228.336 122.732C227.245 122.973 225.964 123.084 224.492 123.064ZM245.531 96.9433C244.859 96.9343 244.286 96.7026 243.812 96.2483C243.371 95.7623 243.154 95.1994 243.163 94.5594C243.171 93.9195 243.403 93.3625 243.857 92.8886C244.343 92.415 244.923 92.1827 245.595 92.1917C246.234 92.2003 246.775 92.4476 247.217 92.9335C247.69 93.4199 247.923 93.983 247.914 94.623C247.906 95.2629 247.658 95.8197 247.172 96.2932C246.718 96.7352 246.171 96.9519 245.531 96.9433ZM242.197 102.179C241.525 102.17 240.952 101.938 240.478 101.484C240.036 100.998 239.82 100.435 239.828 99.7953C239.837 99.1553 240.068 98.5984 240.523 98.1244C241.009 97.6509 241.588 97.4186 242.26 97.4276C242.9 97.4362 243.441 97.6834 243.882 98.1694C244.356 98.6557 244.588 99.2189 244.58 99.8589C244.571 100.499 244.324 101.056 243.837 101.529C243.384 101.971 242.837 102.188 242.197 102.179ZM248.724 102.267C248.052 102.258 247.479 102.026 247.005 101.571C246.564 101.085 246.347 100.523 246.356 99.8826C246.364 99.2427 246.596 98.6857 247.05 98.2117C247.537 97.7382 248.116 97.5059 248.788 97.5149C249.428 97.5235 249.968 97.7707 250.41 98.2567C250.883 98.7431 251.116 99.3062 251.107 99.9462C251.099 100.586 250.851 101.143 250.365 101.616C249.911 102.058 249.364 102.275 248.724 102.267ZM265.269 123.61L265.802 119.681C267.37 119.702 268.619 119.622 269.549 119.443C270.48 119.263 271.157 118.888 271.581 118.318C272.005 117.715 272.225 116.822 272.241 115.638C272.251 114.838 272.136 113.893 271.894 112.801C271.653 111.678 271.333 110.49 270.934 109.236C270.535 107.983 270.103 106.745 269.64 105.523L273.547 104.135C273.949 105.164 274.317 106.337 274.652 107.654C275.018 108.971 275.321 110.271 275.559 111.554C275.798 112.838 275.911 113.959 275.898 114.919C275.881 116.199 275.722 117.333 275.421 118.321C275.152 119.278 274.741 120.104 274.188 120.801C273.635 121.465 272.923 122.016 272.053 122.452C271.216 122.857 270.236 123.164 269.113 123.373C267.99 123.55 266.709 123.629 265.269 123.61ZM271.741 99.1181C271.07 99.1092 270.497 98.8775 270.023 98.4231C269.581 97.9371 269.365 97.3742 269.373 96.7343C269.382 96.0943 269.613 95.5374 270.068 95.0634C270.554 94.5899 271.133 94.3576 271.805 94.3666C272.445 94.3751 272.986 94.6224 273.427 95.1083C273.901 95.5947 274.133 96.1579 274.125 96.7978C274.116 97.4378 273.869 97.9945 273.382 98.468C272.928 98.91 272.381 99.1267 271.741 99.1181Z" fill="#D91438"/>
<path d="M248.457 218.061L133.339 282.061L129.055 284L121.559 282.061L111.921 276.242L105.496 271.879L101.213 266.545V259.273C101.034 257.01 100.784 251.709 101.213 248.606C101.641 245.503 106.745 245.051 109.244 245.212L105.496 239.394L109.244 233.091H117.276L121.559 227.758L124.772 220.485L121.559 215.636L118.882 208.848L105.496 206.424V188.97L98 169.576H105.496H111.921L117.276 164.727L118.882 159.879H124.772V154.545V144.364L127.449 140L138.693 144.364H152.614L162.787 140L176.173 135.636L185.811 140L201.339 144.364L206.157 147.273L248.457 133.212L255.953 128.848L272.016 133.212L299.323 124L302 130.788L283.26 147.273L272.016 149.697L269.339 162.788V181.212L266.126 185.576V202.545L258.094 218.061H248.457Z" fill="#0D0D0D" stroke="black"/>
<path d="M180.011 210.477L159.579 218.443L145.69 201.473L146.952 223.366L126.521 231.331L147.732 236.896L148.994 258.789L160.841 240.336L182.053 245.901L168.163 228.931L180.011 210.477Z" fill="#027333"/>
<path d="M236.412 159.537L215.98 167.502L202.091 150.532L203.353 172.425L182.922 180.391L204.133 185.956L205.395 207.849L217.242 189.395L238.454 194.96L224.564 177.99L236.412 159.537Z" fill="#027333"/>
<path d="M405.056 144.336V153.168C410.773 155.899 418.027 157.264 426.816 157.264C435.605 157.264 442.219 155.899 446.656 153.168C451.093 150.352 453.312 146.427 453.312 141.392C453.312 136.272 451.221 132.475 447.04 130C442.859 127.525 436.203 125.435 427.072 123.728C417.941 121.936 411.072 119.589 406.464 116.688C401.941 113.787 399.68 109.221 399.68 102.992C399.68 89.5947 409.621 82.896 429.504 82.896C440.085 82.896 448.832 84.816 455.744 88.656C457.024 89.424 457.664 90.32 457.664 91.344V101.84C457.664 102.693 457.323 103.419 456.64 104.016C455.957 104.528 455.147 104.784 454.208 104.784C453.269 104.784 452.459 104.528 451.776 104.016C451.093 103.419 450.752 102.693 450.752 101.84V93.008C444.864 90.2773 437.867 88.912 429.76 88.912C421.739 88.912 415.851 90.064 412.096 92.368C408.427 94.672 406.592 98.2133 406.592 102.992C406.592 107.515 408.981 110.885 413.76 113.104C417.003 114.725 421.355 116.133 426.816 117.328C432.363 118.437 436.288 119.291 438.592 119.888C440.896 120.485 443.584 121.424 446.656 122.704C449.728 123.899 452.117 125.264 453.824 126.8C455.531 128.336 457.024 130.384 458.304 132.944C459.584 135.419 460.224 138.277 460.224 141.52C460.224 148.176 457.408 153.467 451.776 157.392C446.229 161.317 438.251 163.28 427.84 163.28C423.061 163.28 417.899 162.768 412.352 161.744C406.805 160.635 402.624 159.184 399.808 157.392C398.699 156.709 398.144 155.856 398.144 154.832V144.336C398.144 143.483 398.485 142.8 399.168 142.288C399.851 141.691 400.661 141.392 401.6 141.392C402.539 141.392 403.349 141.691 404.032 142.288C404.715 142.8 405.056 143.483 405.056 144.336ZM484.688 123.216C489.125 116.304 495.013 112.848 502.352 112.848C509.776 112.848 515.408 115.237 519.248 120.016C523.173 124.709 525.136 130.683 525.136 137.936C525.136 145.189 523.131 151.248 519.12 156.112C515.195 160.891 509.691 163.28 502.608 163.28C495.611 163.28 489.808 160.848 485.2 155.984V188.368C485.2 189.221 484.859 189.904 484.176 190.416C483.493 191.013 482.683 191.312 481.744 191.312C480.805 191.312 479.995 191.013 479.312 190.416C478.629 189.904 478.288 189.221 478.288 188.368V122.576C478.288 120.955 477.477 120.144 475.856 120.144H469.84C468.987 120.144 468.261 119.888 467.664 119.376C467.152 118.779 466.896 118.053 466.896 117.2C466.896 116.347 467.152 115.621 467.664 115.024C468.261 114.427 468.987 114.128 469.84 114.128H476.752C482.213 114.128 484.859 117.157 484.688 123.216ZM485.2 149.712C490.661 154.832 496.123 157.392 501.584 157.392C507.045 157.392 511.184 155.6 514 152.016C516.901 148.432 518.352 143.696 518.352 137.808C518.352 131.92 516.944 127.269 514.128 123.856C511.312 120.443 507.429 118.736 502.48 118.736C495.227 118.736 489.467 122.789 485.2 130.896V149.712ZM534.337 114.128H540.865C546.241 114.128 549.014 117.029 549.185 122.832C553.793 116.176 559.254 112.848 565.569 112.848C569.153 112.848 572.182 113.531 574.657 114.896C575.852 115.579 576.449 116.475 576.449 117.584V128.336C576.449 129.189 576.108 129.915 575.425 130.512C574.742 131.024 573.932 131.28 572.993 131.28C572.054 131.28 571.244 131.024 570.561 130.512C569.878 129.915 569.537 129.189 569.537 128.336V119.376C568.428 118.949 566.764 118.736 564.545 118.736C562.326 118.736 559.809 119.803 556.993 121.936C554.177 123.984 551.745 127.056 549.697 131.152V160.336C549.697 161.189 549.356 161.872 548.673 162.384C547.99 162.981 547.18 163.28 546.241 163.28C545.302 163.28 544.492 162.981 543.809 162.384C543.126 161.872 542.785 161.189 542.785 160.336V122.576C542.785 120.955 541.932 120.144 540.225 120.144H534.337C533.484 120.144 532.758 119.888 532.161 119.376C531.649 118.779 531.393 118.053 531.393 117.2C531.393 116.347 531.649 115.621 532.161 115.024C532.758 114.427 533.484 114.128 534.337 114.128ZM623.038 133.84C622.782 129.232 621.417 125.563 618.942 122.832C616.553 120.101 613.054 118.736 608.446 118.736C603.923 118.736 600.126 120.144 597.054 122.96C593.982 125.691 592.062 129.317 591.294 133.84H623.038ZM623.294 149.712C623.891 148.688 624.574 148.176 625.342 148.176C626.11 148.176 626.878 148.389 627.646 148.816C628.414 149.157 628.926 149.755 629.182 150.608C629.523 151.376 629.481 152.101 629.054 152.784C624.702 159.781 617.79 163.28 608.318 163.28C600.809 163.28 594.878 160.891 590.526 156.112C586.259 151.248 584.126 145.147 584.126 137.808C584.126 130.469 586.345 124.496 590.782 119.888C595.219 115.195 601.065 112.848 608.318 112.848C615.571 112.848 620.947 115.024 624.446 119.376C628.03 123.728 629.822 129.531 629.822 136.784C629.822 138.747 628.713 139.728 626.494 139.728L591.038 139.856C591.379 145.147 593.086 149.413 596.158 152.656C599.315 155.813 603.369 157.392 608.318 157.392C614.974 157.392 619.966 154.832 623.294 149.712ZM675.317 142.16C669.685 140.624 664.864 139.856 660.853 139.856C656.928 139.856 653.685 140.624 651.125 142.16C648.65 143.696 647.413 145.872 647.413 148.688C647.413 151.419 648.224 153.552 649.845 155.088C651.466 156.624 653.685 157.392 656.501 157.392C664.352 157.392 670.624 153.125 675.317 144.592V142.16ZM685.557 155.984H690.549C691.402 155.984 692.085 156.283 692.597 156.88C693.194 157.477 693.493 158.203 693.493 159.056C693.493 159.909 693.194 160.635 692.597 161.232C692.085 161.744 691.402 162 690.549 162H684.917C681.845 162 679.456 161.317 677.749 159.952C676.128 158.587 675.317 156.667 675.317 154.192C675.317 153.765 675.36 153.296 675.445 152.784C670.922 159.781 664.352 163.28 655.733 163.28C650.954 163.28 647.2 162 644.469 159.44C641.824 156.88 640.501 153.339 640.501 148.816C640.501 144.208 642.293 140.624 645.877 138.064C649.546 135.419 654.069 134.096 659.445 134.096C664.906 134.096 670.197 134.992 675.317 136.784V127.952C675.317 123.856 673.824 121.211 670.837 120.016C668.533 119.163 665.333 118.736 661.237 118.736C657.226 118.736 653.514 119.419 650.101 120.784V128.848C650.101 129.701 649.76 130.427 649.077 131.024C648.394 131.536 647.584 131.792 646.645 131.792C645.706 131.792 644.896 131.536 644.213 131.024C643.53 130.427 643.189 129.701 643.189 128.848V119.12C643.189 118.011 643.744 117.157 644.853 116.56C649.034 114.085 654.581 112.848 661.493 112.848C668.405 112.848 673.568 114 676.981 116.304C680.394 118.523 682.101 122.405 682.101 127.952V153.552C682.101 155.173 683.253 155.984 685.557 155.984ZM720.91 118.736C716.046 118.736 712.163 120.485 709.262 123.984C706.361 127.483 704.91 132.219 704.91 138.192C704.91 144.165 706.318 148.859 709.134 152.272C712.035 155.685 715.961 157.392 720.91 157.392C728.078 157.392 733.795 153.339 738.062 145.232V126.416C735.843 124.283 733.155 122.491 729.998 121.04C726.926 119.504 723.897 118.736 720.91 118.736ZM738.062 72.016H729.614C728.761 72.016 728.035 71.76 727.438 71.248C726.926 70.6507 726.67 69.9253 726.67 69.072C726.67 68.2187 726.926 67.4933 727.438 66.896C728.035 66.2987 728.761 66 729.614 66H741.518C742.457 66 743.267 66.2987 743.95 66.896C744.633 67.4933 744.974 68.2187 744.974 69.072V153.552C744.974 155.173 745.827 155.984 747.534 155.984H753.422C754.275 155.984 754.958 156.283 755.47 156.88C756.067 157.392 756.366 158.075 756.366 158.928C756.366 159.781 756.067 160.507 755.47 161.104C754.958 161.701 754.275 162 753.422 162H746.638C741.091 162 738.403 158.971 738.574 152.912C736.697 155.813 734.222 158.288 731.15 160.336C728.163 162.299 724.75 163.28 720.91 163.28C713.315 163.28 707.598 160.848 703.758 155.984C700.003 151.12 698.126 145.104 698.126 137.936C698.126 130.768 700.089 124.795 704.014 120.016C708.025 115.237 713.486 112.848 720.398 112.848C727.31 112.848 733.198 115.109 738.062 119.632V72.016ZM776.572 160.336C776.572 161.189 776.231 161.872 775.548 162.384C774.865 162.981 774.055 163.28 773.116 163.28C772.177 163.28 771.367 162.981 770.684 162.384C770.001 161.872 769.66 161.189 769.66 160.336V120.144H761.212C760.359 120.144 759.633 119.888 759.036 119.376C758.524 118.779 758.268 118.053 758.268 117.2C758.268 116.347 758.524 115.621 759.036 115.024C759.633 114.427 760.359 114.128 761.212 114.128H773.628C775.591 114.128 776.572 115.109 776.572 117.072V160.336ZM769.404 94.928C768.636 94.0747 768.252 93.0507 768.252 91.856C768.252 90.6613 768.636 89.6373 769.404 88.784C770.172 87.9307 771.239 87.504 772.604 87.504C773.969 87.504 775.036 87.9307 775.804 88.784C776.657 89.6373 777.084 90.6613 777.084 91.856C777.084 93.0507 776.657 94.0747 775.804 94.928C775.036 95.7813 773.969 96.208 772.604 96.208C771.239 96.208 770.172 95.7813 769.404 94.928ZM794.853 120.144H788.837C787.984 120.144 787.258 119.888 786.661 119.376C786.149 118.779 785.893 118.053 785.893 117.2C785.893 116.347 786.149 115.621 786.661 115.024C787.258 114.427 787.984 114.128 788.837 114.128H795.749C801.04 114.128 803.685 117.029 803.685 122.832C808.805 116.176 815.248 112.848 823.013 112.848C827.621 112.848 831.376 114.043 834.277 116.432C837.264 118.736 838.757 122.149 838.757 126.672V153.552C838.757 155.173 839.909 155.984 842.213 155.984H847.205C848.058 155.984 848.741 156.283 849.253 156.88C849.85 157.477 850.149 158.203 850.149 159.056C850.149 159.909 849.85 160.635 849.253 161.232C848.741 161.744 848.058 162 847.205 162H842.213C835.301 162 831.845 159.227 831.845 153.68V126.672C831.845 124.112 831.034 122.149 829.413 120.784C827.877 119.419 825.701 118.736 822.885 118.736C815.034 118.736 808.805 122.832 804.197 131.024V160.336C804.197 161.189 803.856 161.872 803.173 162.384C802.49 162.981 801.68 163.28 800.741 163.28C799.802 163.28 798.992 162.981 798.309 162.384C797.626 161.872 797.285 161.189 797.285 160.336V122.576C797.285 120.955 796.474 120.144 794.853 120.144ZM863.818 163.408C860.575 165.285 858.954 168.059 858.954 171.728C858.954 175.483 860.49 178.427 863.562 180.56C866.719 182.693 871.029 183.76 876.49 183.76C881.951 183.76 886.858 182.821 891.21 180.944C895.562 179.067 897.738 176.507 897.738 173.264C897.738 169.765 894.666 167.675 888.522 166.992C886.389 166.821 879.605 165.968 868.17 164.432C866.293 164.091 864.842 163.749 863.818 163.408ZM891.082 131.152C891.082 127.397 889.802 124.368 887.242 122.064C884.767 119.675 881.525 118.48 877.514 118.48C873.589 118.48 870.346 119.675 867.786 122.064C865.311 124.368 864.074 127.397 864.074 131.152C864.074 134.907 865.311 137.979 867.786 140.368C870.346 142.672 873.589 143.824 877.514 143.824C881.525 143.824 884.767 142.672 887.242 140.368C889.802 137.979 891.082 134.907 891.082 131.152ZM894.922 96.208C896.287 96.208 897.226 96.9333 897.738 98.384C898.933 101.371 899.53 104.059 899.53 106.448C899.53 111.397 897.482 115.579 893.386 118.992C896.458 122.149 897.994 126.373 897.994 131.664C897.994 136.955 895.989 141.307 891.978 144.72C888.053 148.048 883.231 149.712 877.514 149.712C874.954 149.712 872.522 149.371 870.218 148.688C868.255 149.285 866.506 150.224 864.97 151.504C863.519 152.699 862.794 153.893 862.794 155.088C862.794 156.709 864.927 157.904 869.194 158.672C871.071 158.928 877.855 159.739 889.546 161.104C899.615 162.384 904.65 166.437 904.65 173.264C904.65 178.555 901.621 182.608 895.562 185.424C889.589 188.24 883.189 189.648 876.362 189.648C869.621 189.648 863.861 188.155 859.082 185.168C854.389 182.267 852.042 178.171 852.042 172.88C852.042 167.589 854.303 163.579 858.826 160.848C856.949 159.739 856.01 157.819 856.01 155.088C856.01 151.333 858.954 148.304 864.842 146C859.807 142.16 857.29 137.381 857.29 131.664C857.29 125.861 859.167 121.253 862.922 117.84C866.677 114.341 871.199 112.592 876.49 112.592C881.866 112.592 886.09 113.573 889.162 115.536C891.466 113.232 892.618 110.288 892.618 106.704C892.618 104.912 892.319 103.248 891.722 101.712C890.698 99.152 891.21 97.4453 893.258 96.592C893.855 96.336 894.41 96.208 894.922 96.208ZM637.55 287.984H642.286C643.139 287.984 643.822 288.283 644.334 288.88C644.931 289.477 645.23 290.203 645.23 291.056C645.23 291.909 644.931 292.635 644.334 293.232C643.822 293.744 643.139 294 642.286 294H637.55C633.795 294 631.193 293.189 629.742 291.568C628.377 289.947 627.694 288.112 627.694 286.064V257.904H580.718V292.336C580.718 293.189 580.377 293.872 579.694 294.384C579.011 294.981 578.201 295.28 577.262 295.28C576.323 295.28 575.513 294.981 574.83 294.384C574.147 293.872 573.806 293.189 573.806 292.336V222.192H566.382C565.529 222.192 564.803 221.936 564.206 221.424C563.694 220.827 563.438 220.101 563.438 219.248C563.438 218.395 563.694 217.669 564.206 217.072C564.803 216.475 565.529 216.176 566.382 216.176H577.39C578.243 216.176 579.011 216.475 579.694 217.072C580.377 217.669 580.718 218.395 580.718 219.248V251.888H627.694V222.192H620.142C619.289 222.192 618.563 221.936 617.966 221.424C617.454 220.827 617.198 220.101 617.198 219.248C617.198 218.395 617.454 217.669 617.966 217.072C618.563 216.475 619.289 216.176 620.142 216.176H631.278C632.131 216.176 632.899 216.475 633.582 217.072C634.265 217.669 634.606 218.395 634.606 219.248V286.064C634.606 287.344 635.587 287.984 637.55 287.984ZM676.449 289.392C681.654 289.392 685.878 287.6 689.121 284.016C692.449 280.432 694.113 275.824 694.113 270.192C694.113 264.475 692.449 259.824 689.121 256.24C685.878 252.571 681.654 250.736 676.449 250.736C671.244 250.736 666.977 252.571 663.649 256.24C660.406 259.824 658.785 264.475 658.785 270.192C658.785 275.824 660.406 280.432 663.649 284.016C666.977 287.6 671.244 289.392 676.449 289.392ZM658.657 288.24C654.134 283.461 651.873 277.403 651.873 270.064C651.873 262.725 654.177 256.709 658.785 252.016C663.393 247.237 669.281 244.848 676.449 244.848C683.617 244.848 689.462 247.237 693.985 252.016C698.593 256.709 700.897 262.768 700.897 270.192C700.897 277.531 698.593 283.547 693.985 288.24C689.462 292.933 683.574 295.28 676.321 295.28C669.153 295.28 663.265 292.933 658.657 288.24ZM724.813 255.216C729.25 248.304 735.138 244.848 742.477 244.848C749.901 244.848 755.533 247.237 759.373 252.016C763.298 256.709 765.261 262.683 765.261 269.936C765.261 277.189 763.256 283.248 759.245 288.112C755.32 292.891 749.816 295.28 742.733 295.28C735.736 295.28 729.933 292.848 725.325 287.984V320.368C725.325 321.221 724.984 321.904 724.301 322.416C723.618 323.013 722.808 323.312 721.869 323.312C720.93 323.312 720.12 323.013 719.437 322.416C718.754 321.904 718.413 321.221 718.413 320.368V254.576C718.413 252.955 717.602 252.144 715.981 252.144H709.965C709.112 252.144 708.386 251.888 707.789 251.376C707.277 250.779 707.021 250.053 707.021 249.2C707.021 248.347 707.277 247.621 707.789 247.024C708.386 246.427 709.112 246.128 709.965 246.128H716.877C722.338 246.128 724.984 249.157 724.813 255.216ZM725.325 281.712C730.786 286.832 736.248 289.392 741.709 289.392C747.17 289.392 751.309 287.6 754.125 284.016C757.026 280.432 758.477 275.696 758.477 269.808C758.477 263.92 757.069 259.269 754.253 255.856C751.437 252.443 747.554 250.736 742.605 250.736C735.352 250.736 729.592 254.789 725.325 262.896V281.712ZM815.038 265.84C814.782 261.232 813.417 257.563 810.942 254.832C808.553 252.101 805.054 250.736 800.446 250.736C795.923 250.736 792.126 252.144 789.054 254.96C785.982 257.691 784.062 261.317 783.294 265.84H815.038ZM815.294 281.712C815.891 280.688 816.574 280.176 817.342 280.176C818.11 280.176 818.878 280.389 819.646 280.816C820.414 281.157 820.926 281.755 821.182 282.608C821.523 283.376 821.481 284.101 821.054 284.784C816.702 291.781 809.79 295.28 800.318 295.28C792.809 295.28 786.878 292.891 782.526 288.112C778.259 283.248 776.126 277.147 776.126 269.808C776.126 262.469 778.345 256.496 782.782 251.888C787.219 247.195 793.065 244.848 800.318 244.848C807.571 244.848 812.947 247.024 816.446 251.376C820.03 255.728 821.822 261.531 821.822 268.784C821.822 270.747 820.713 271.728 818.494 271.728L783.038 271.856C783.379 277.147 785.086 281.413 788.158 284.656C791.315 287.813 795.369 289.392 800.318 289.392C806.974 289.392 811.966 286.832 815.294 281.712Z" fill="#C20505"/>
</svg>
